<?xml version="1.0" encoding="UTF-8" standalone="no"?>
<svg width="20px" height="15px" viewBox="0 0 20 15" version="1.1" xmlns="http://www.w3.org/2000/svg" xmlns:xlink="http://www.w3.org/1999/xlink">
    <title>Globe </title>
    <desc>Belka.us</desc>
    <defs>
        <rect id="path-1" x="0" y="0" width="20" height="15"></rect>
        <mask id="mask-2" maskContentUnits="userSpaceOnUse" maskUnits="objectBoundingBox" x="0" y="0" width="20" height="15" fill="white">
            <use xlink:href="#path-1"></use>
        </mask>
    </defs>
    <g id="Page-1" stroke="none" stroke-width="1" fill="none" fill-rule="evenodd">
        <g id="Group-2" transform="translate(-24.000000, -144.000000)">
            <g id="Group" transform="translate(24.000000, 144.000000)">
                <use id="Rectangle" stroke="#4A4A4A" mask="url(#mask-2)" stroke-width="2" xlink:href="#path-1"></use>
                <path d="M10.1027118,13.0084802 C13.1352868,13.0084802 15.6028102,10.5392957 15.6028102,7.50424009 C15.6028102,4.46918445 13.1354837,2 10.1027118,2 C7.06993986,2 4.60281023,4.46918445 4.60281023,7.50424009 C4.60281023,10.5390987 7.07013675,13.0084802 10.1027118,13.0084802 L10.1027118,13.0084802 Z M10.1027118,12.3383799 C10.0084053,12.3383799 9.91468938,12.3348334 9.82156414,12.3295136 C9.44000663,11.7693563 9.13326431,11.1022115 8.91236259,10.365712 C9.27954771,10.326897 9.65342683,10.3050266 10.0330155,10.3050266 C10.3982318,10.3050266 10.758723,10.3231534 11.1115357,10.3588159 C10.8894527,11.1008322 10.5807415,11.7725087 10.195837,12.3358185 C10.1649265,12.3366067 10.134016,12.3383799 10.1027118,12.3383799 L10.1027118,12.3383799 Z M8.74304398,9.71176822 C8.61152673,9.11555436 8.53218325,8.4856483 8.51210127,7.8391917 L11.5104188,7.8391917 C11.49014,8.48348097 11.411584,9.11102266 11.2808543,9.70566028 C10.8729146,9.6603433 10.4565089,9.63532044 10.0334093,9.63532044 C9.59593725,9.63512341 9.16535609,9.66290469 8.74304398,9.71176822 L8.74304398,9.71176822 Z M11.7821161,10.4527994 C12.3916631,10.5564374 12.973056,10.7140617 13.5125129,10.9250812 C12.8488234,11.5874972 11.994355,12.0578087 11.0394768,12.2463668 C11.3444472,11.7084739 11.5946844,11.1039847 11.7821161,10.4527994 L11.7821161,10.4527994 Z M11.944347,9.80161407 C12.079605,9.17387534 12.159736,8.51402067 12.1796211,7.8391917 L14.92022,7.8391917 C14.8548551,8.79163645 14.5138553,9.66960373 13.9743983,10.39172 C13.3459507,10.125729 12.6633604,9.92791052 11.944347,9.80161407 L11.944347,9.80161407 Z M12.1796211,7.16928848 C12.159736,6.50785757 12.08118,5.85883957 11.9496628,5.23957315 C12.6734014,5.11209451 13.3603231,4.91171463 13.9923146,4.64198007 C14.52114,5.35956464 14.8556426,6.22787743 14.92022,7.16928848 L12.1796211,7.16928848 L12.1796211,7.16928848 Z M11.5102219,7.16928848 L8.51190439,7.16928848 C8.53198636,6.53642697 8.60936103,5.91775164 8.73713752,5.33001008 C9.16122157,5.37926767 9.59377155,5.40744302 10.0332124,5.40744302 C10.458084,5.40744302 10.8764585,5.3820261 11.286367,5.33631506 C11.4133559,5.92208631 11.4903369,6.53879133 11.5102219,7.16928848 L11.5102219,7.16928848 Z M7.84250524,7.16928848 L5.2852036,7.16928848 C5.34859963,6.2471864 5.6712894,5.39581822 6.18101717,4.68729706 C6.77048219,4.92885628 7.40660826,5.11130639 8.07443236,5.23188897 C7.94173382,5.85332272 7.86239033,6.50509914 7.84250524,7.16928848 L7.84250524,7.16928848 Z M7.84250524,7.8391917 C7.86258721,8.5167791 7.94330888,9.17958922 8.07935441,9.80949528 C7.41684613,9.92869865 6.78544523,10.1091785 6.19952409,10.3473882 C5.6789678,9.63354717 5.34938716,8.7725245 5.28500672,7.8391917 L7.84250524,7.8391917 L7.84250524,7.8391917 Z M6.65471551,10.885281 C7.15282723,10.6984963 7.68677149,10.5582106 8.24256967,10.4608776 C8.42409497,11.0901926 8.66488178,11.6757668 8.95666106,12.1996706 C8.06793525,11.9825431 7.27509102,11.5189307 6.65471551,10.885281 L6.65471551,10.885281 Z M13.5363357,4.10822483 C12.9919567,4.32298792 12.4044605,4.48277954 11.7886132,4.58838782 C11.6005908,3.92518363 11.3483849,3.30808455 11.0394768,2.76211343 C12.0057742,2.95283881 12.869496,3.43280477 13.5363357,4.10822483 L13.5363357,4.10822483 Z M10.1970183,2.67246461 C10.5860573,3.24247344 10.8969342,3.92774503 11.1196079,4.68217427 C10.7642357,4.71862488 10.4013819,4.73734277 10.0332124,4.73734277 C9.65067048,4.73734277 9.27403501,4.7154724 8.9044873,4.67567227 C9.12617655,3.92636581 9.43508457,3.24582296 9.8209735,2.67876958 C9.9144925,2.67344976 10.0082084,2.66990322 10.1029087,2.66990322 C10.1342129,2.67010025 10.1655172,2.67207055 10.1970183,2.67246461 L10.1970183,2.67246461 Z M8.95528289,2.80900665 C8.65976285,3.34079159 8.41818851,3.93956685 8.23587568,4.5805066 C7.67358039,4.48159736 7.13372967,4.33855332 6.63108966,4.148222 C7.25461528,3.50196242 8.05553167,3.02928659 8.95528289,2.80900665 L8.95528289,2.80900665 Z" id="Shape" fill="#4A4A4A"></path>
            </g>
        </g>
    </g>
</svg>
